<svg width="100" height="50" viewBox="0 0 100 50" fill="none" xmlns="http://www.w3.org/2000/svg">
    <path d="M2.18047 24.4381H7.59574C7.83707 24.4381 8.03012 24.2461 8.03012 24.006V16.2376C8.03012 15.9976 8.22318 15.8055 8.4645 15.8055H19.6522C19.8935 15.8055 20.0866 15.6135 20.0866 15.3734V1.34422C20.0866 1.10416 19.8935 0.912109 19.6522 0.912109H5.60725C3.47396 0.912109 1.74609 2.63095 1.74609 4.75309V24.006C1.74609 24.2461 1.93915 24.4381 2.18047 24.4381ZM8.4645 7.1345H13.4164C13.6578 7.1345 13.8508 7.32655 13.8508 7.56661V9.69836C13.8508 9.93842 13.6578 10.1305 13.4164 10.1305H8.4645C8.22318 10.1305 8.03012 9.93842 8.03012 9.69836V7.56661C8.03012 7.32655 8.22318 7.1345 8.4645 7.1345Z" fill="white"/>
    <path d="M28.0114 15.7671H32.915C33.1564 15.7671 33.3494 15.9592 33.3494 16.1992V24.006C33.3494 24.2461 33.5425 24.4381 33.7838 24.4381H39.1991C39.4404 24.4381 39.6335 24.2461 39.6335 24.006V1.34422C39.6335 1.10416 39.4404 0.912109 39.1991 0.912109H33.7838C33.5425 0.912109 33.3494 1.10416 33.3494 1.34422V9.11261C33.3494 9.35267 33.1564 9.54472 32.915 9.54472H28.0114C27.7701 9.54472 27.577 9.35267 27.577 9.11261V1.34422C27.577 1.10416 27.3839 0.912109 27.1426 0.912109H21.7273C21.486 0.912109 21.293 1.10416 21.293 1.34422V24.006C21.293 24.2461 21.486 24.4381 21.7273 24.4381H27.1426C27.3839 24.4381 27.577 24.2461 27.577 24.006V16.1992C27.577 15.9592 27.7701 15.7671 28.0114 15.7671Z" fill="white"/>
    <path d="M41.2645 24.4381H58.7362C58.9775 24.4381 59.1706 24.2461 59.1706 24.006V1.34422C59.1706 1.10416 58.9775 0.912109 58.7362 0.912109H41.2645C41.0231 0.912109 40.8301 1.10416 40.8301 1.34422V24.006C40.8301 24.2461 41.0231 24.4381 41.2645 24.4381ZM47.5388 7.1345H52.4618C52.7031 7.1345 52.8962 7.32655 52.8962 7.56661V17.774C52.8962 18.0141 52.7031 18.2061 52.4618 18.2061H47.5388C47.2975 18.2061 47.1045 18.0141 47.1045 17.774V7.56661C47.1045 7.32655 47.2975 7.1345 47.5388 7.1345Z" fill="white"/>
    <path d="M97.8221 18.2061H86.6248C86.3835 18.2061 86.1904 18.0141 86.1904 17.774V16.1992C86.1904 15.9592 86.3835 15.7671 86.6248 15.7671H97.8221C98.0634 15.7671 98.2565 15.5751 98.2565 15.335V9.97683C98.2565 9.73677 98.0634 9.54472 97.8221 9.54472H86.6248C86.3835 9.54472 86.1904 9.35267 86.1904 9.11261V7.56661C86.1904 7.32655 86.3835 7.1345 86.6248 7.1345H97.8221C98.0634 7.1345 98.2565 6.94245 98.2565 6.70239V4.75309C98.2565 2.63095 96.5286 0.912109 94.3954 0.912109H80.3504C80.1091 0.912109 79.916 1.10416 79.916 1.34422V24.006C79.916 24.2461 80.1091 24.4381 80.3504 24.4381H97.8221C98.0634 24.4381 98.2565 24.2461 98.2565 24.006V18.6478C98.2565 18.4078 98.0634 18.2061 97.8221 18.2061Z" fill="white"/>
    <path d="M58.7362 42.8652H47.5388C47.2975 42.8652 47.1045 42.6731 47.1045 42.433V40.839C47.1045 40.599 47.2975 40.4069 47.5388 40.4069H58.7362C58.9775 40.4069 59.1706 40.2149 59.1706 39.9748V34.6262C59.1706 34.3862 58.9775 34.1941 58.7362 34.1941H47.5388C47.2975 34.1941 47.1045 34.0021 47.1045 33.762V32.216C47.1045 31.976 47.2975 31.7839 47.5388 31.7839H58.7362C58.9775 31.7839 59.1706 31.5919 59.1706 31.3518V25.9936C59.1706 25.7536 58.9775 25.5615 58.7362 25.5615H41.2645C41.0231 25.5615 40.8301 25.7536 40.8301 25.9936V48.6554C40.8301 48.8955 41.0231 49.0875 41.2645 49.0875H58.7362C58.9775 49.0875 59.1706 48.8955 59.1706 48.6554V43.2973C59.1706 43.0572 58.9775 42.8652 58.7362 42.8652Z" fill="white"/>
    <path d="M8.03012 48.6555V40.8103C8.03012 40.5703 8.22318 40.3782 8.4645 40.3782H13.4164C13.6578 40.3782 13.8508 40.5703 13.8508 40.8103V48.6651C13.8508 48.9052 14.0439 49.0973 14.2852 49.0973H19.6522C19.8935 49.0973 20.0866 48.9052 20.0866 48.6651V26.0033C20.0866 25.7633 19.8935 25.5712 19.6522 25.5712H2.18047C1.93915 25.5712 1.74609 25.7633 1.74609 26.0033V45.2563C1.74609 47.3784 3.47396 49.0973 5.60725 49.0973H7.59574C7.83707 49.0877 8.03012 48.8956 8.03012 48.6555ZM8.4645 31.7648H13.4164C13.6578 31.7648 13.8508 31.9569 13.8508 32.1969V34.4055C13.8508 34.6456 13.6578 34.8376 13.4164 34.8376H8.4645C8.22318 34.8376 8.03012 34.6456 8.03012 34.4055V32.1969C8.03012 31.9569 8.22318 31.7648 8.4645 31.7648Z" fill="white"/>
    <path d="M86.2 48.6554V40.8102C86.2 40.5702 86.3931 40.3781 86.6344 40.3781H91.5864C91.8277 40.3781 92.0207 40.5702 92.0207 40.8102V48.665C92.0207 48.9051 92.2138 49.0971 92.4551 49.0971H94.3954C96.5286 49.0971 98.2565 47.3783 98.2565 45.2562V25.9936C98.2565 25.7536 98.0634 25.5615 97.8221 25.5615H80.3504C80.1091 25.5615 79.916 25.7536 79.916 25.9936V48.6554C79.916 48.8955 80.1091 49.0875 80.3504 49.0875H85.7657C86.007 49.0875 86.2 48.8955 86.2 48.6554ZM86.6344 31.7647H91.5864C91.8277 31.7647 92.0207 31.9568 92.0207 32.1968V34.4054C92.0207 34.6454 91.8277 34.8375 91.5864 34.8375H86.6344C86.3931 34.8375 86.2 34.6454 86.2 34.4054V32.1968C86.2 31.9568 86.3931 31.7647 86.6344 31.7647Z" fill="white"/>
    <path d="M39.4597 39.9748V25.9936C39.4597 25.7536 39.2666 25.5615 39.0253 25.5615H21.7273C21.486 25.5615 21.293 25.7536 21.293 25.9936V48.6554C21.293 48.8955 21.486 49.0875 21.7273 49.0875H27.2198C27.4612 49.0875 27.6542 48.8955 27.6542 48.6554V40.839C27.6542 40.599 27.8473 40.4069 28.0886 40.4069H28.8898C29.0732 40.4069 29.2276 40.5125 29.2952 40.6854L32.4614 48.8187C32.5289 48.9819 32.6834 49.0971 32.8668 49.0971H38.9964C39.3053 49.0971 39.508 48.7899 39.4018 48.5114L36.477 41.0023C36.3708 40.7238 36.5735 40.4165 36.8824 40.4165H39.0253C39.2666 40.4069 39.4597 40.2149 39.4597 39.9748ZM27.5673 34.3958V32.1968C27.5673 31.9568 27.7604 31.7647 28.0017 31.7647H32.915C33.1564 31.7647 33.3494 31.9568 33.3494 32.1968V34.3958C33.3494 34.6358 33.1564 34.8279 32.915 34.8279H28.0017C27.7604 34.8279 27.5673 34.6358 27.5673 34.3958Z" fill="white"/>
    <path d="M72.4333 1.34422V11.4652C72.4333 11.9357 71.7769 12.0702 71.5935 11.6285L67.2111 1.18098C67.1435 1.01774 66.9891 0.912109 66.8057 0.912109H60.8016C60.5602 0.912109 60.3672 1.10416 60.3672 1.34422V24.4285H66.1975C66.4389 24.4285 66.6319 24.2365 66.6319 23.9964V13.9138C66.6319 13.4433 67.2787 13.3089 67.4621 13.7506L71.8638 24.1693C71.9314 24.3325 72.0858 24.4381 72.2596 24.4381H78.2637C78.505 24.4381 78.698 24.2461 78.698 24.006V0.912109H72.858C72.6264 0.912109 72.4333 1.10416 72.4333 1.34422Z" fill="white"/>
    <path d="M72.4333 25.9936V36.1146C72.4333 36.5851 71.7769 36.7196 71.5935 36.2779L67.2111 25.8304C67.1435 25.6671 66.9891 25.5615 66.8057 25.5615H60.8016C60.5602 25.5615 60.3672 25.7536 60.3672 25.9936V49.0779H66.1975C66.4389 49.0779 66.6319 48.8859 66.6319 48.6458V38.5729C66.6319 38.1023 67.2787 37.9679 67.4621 38.4096L71.8638 48.8283C71.9314 48.9915 72.0858 49.0971 72.2596 49.0971H78.2637C78.505 49.0971 78.698 48.9051 78.698 48.665V25.5711H72.858C72.6264 25.5615 72.4333 25.7536 72.4333 25.9936Z" fill="white"/>
</svg>
